<?xml version="1.0" encoding="UTF-8"?>
<svg width="391px" height="123px" viewBox="0 0 391 123" version="1.1" xmlns="http://www.w3.org/2000/svg" xmlns:xlink="http://www.w3.org/1999/xlink">
    <!-- Generator: Sketch 49.3 (51167) - http://www.bohemiancoding.com/sketch -->
    <title>Group 2 Copy</title>
    <desc>Created with Sketch.</desc>
    <defs></defs>
    <g id="wptw" stroke="none" stroke-width="1" fill="none" fill-rule="evenodd">
        <g id="Group-2-Copy" transform="translate(2.000000, 2.000000)">
            <g id="Group-4" transform="translate(162.000000, 5.000000)">
                <path d="M25.3000011,20.7999954 L38.0800032,20.7999954 C39.1800033,20.7999954 39.7600034,19.9399953 40.6400036,19.9399953 C41.5000037,19.9399953 41.9200038,20.3999953 42.1800038,21.4199955 L43.500004,26.9399964 C43.7000041,27.7999966 43.360004,28.3599966 42.7200039,28.4999967 C42.1000038,28.6199967 41.6200037,28.3599966 41.2800037,27.5599965 C39.8600035,23.7799959 39.0600033,23.1399958 37.120003,23.1399958 L33.8600025,23.1399958 L33.8600025,44.7199993 C33.8600025,45.6399995 34.3000025,46.0999996 35.1000027,46.2999996 L36.5800029,46.5599996 C37.220003,46.7799997 37.5400031,47.1399997 37.5400031,47.7199998 C37.5400031,48.4199999 37.120003,48.8 36.2800029,48.8 L27.0600014,48.8 C26.2200012,48.8 25.8000011,48.4199999 25.8000011,47.7199998 C25.8000011,47.1399997 26.1200012,46.7799997 26.7400013,46.5599996 L28.2400015,46.2999996 C29.0200017,46.0999996 29.4200017,45.6399995 29.4200017,44.7199993 L29.4200017,23.1399958 L26.0800012,23.1399958 C24.1800009,23.1399958 23.4400008,23.7599959 22.0200005,27.5599965 C21.6800005,28.3599966 21.2200004,28.6199967 20.6000003,28.4999967 C19.9400002,28.3599966 19.6000001,27.7999966 19.8200002,26.9399964 L21.1200004,21.4199955 C21.3600004,20.3799953 21.7800005,19.9199953 22.6600006,19.9199953 C23.5600008,19.9199953 24.1200009,20.7999954 25.3000011,20.7999954 Z" id="T" fill="#0F1215"></path>
                <path d="M8.7811785,11.3823873 L8.7811785,105.344522 C8.7811785,107.774574 10.7511256,109.744522 13.1811785,109.744522 L77.0670654,109.744522 C85.6827075,109.744522 92.6670654,102.760164 92.6670654,94.1445216 L92.6670654,6.98238733 L13.1811785,6.98238733 C10.7511256,6.98238733 8.7811785,8.95233443 8.7811785,11.3823873 Z" id="Path-8" stroke="#0F1215" stroke-width="3" stroke-linecap="round" stroke-linejoin="round" stroke-dasharray="1,4"></path>
                <path d="M8.7811785,11.3823873 L8.7811785,105.344522 C8.7811785,107.774574 10.7511256,109.744522 13.1811785,109.744522 L77.0670654,109.744522 C85.6827075,109.744522 92.6670654,102.760164 92.6670654,94.1445216 L92.6670654,6.98238733 L13.1811785,6.98238733 C10.7511256,6.98238733 8.7811785,8.95233443 8.7811785,11.3823873 Z" id="Path-8" stroke="#0F1215" stroke-width="3" stroke-linecap="round" stroke-linejoin="round" stroke-dasharray="1,4" transform="translate(50.724122, 58.363454) rotate(10.000000) translate(-50.724122, -58.363454) "></path>
                <path d="M51.0666032,42.2710711 L69.6,42.2710711" id="Path-9" stroke="#0F1215" stroke-width="3" stroke-linecap="round" stroke-linejoin="round" stroke-dasharray="1,4"></path>
                <path d="M23.226898,62.5926553 L80.801441,62.5926553" id="Path-10" stroke="#0F1215" stroke-width="3" stroke-linecap="round" stroke-linejoin="round" stroke-dasharray="1,4"></path>
                <path d="M22.3267849,82.1315655 L60.8069547,82.1315655" id="Path-11" stroke="#0F1215" stroke-width="3" stroke-linecap="round" stroke-linejoin="round" stroke-dasharray="1,4"></path>
            </g>
            <g id="Group-3" transform="translate(312.000000, 0.000000)">
                <path d="M38.8816027,88.2896003 C38.8816027,89.8000005 38.2160026,90.5424006 37.1664024,90.5424006 C36.1936022,90.5424006 35.4768021,89.8000005 35.4768021,88.2128003 C35.4768021,87.7008002 35.5280021,87.1376001 35.6048021,86.4208 C29.3328011,85.9599999 25.1856004,82.5551993 25.1856004,78.5871987 C25.1856004,76.7439984 26.2096006,75.4383982 27.7456008,75.4383982 C29.1792011,75.4383982 30.2032012,76.5135983 30.2032012,78.2287986 L30.2032012,79.5599988 C30.2032012,82.0687993 32.2768016,83.9887996 35.7840022,84.3727996 C35.9888022,81.9663992 36.2448022,78.1775986 36.2704022,71.3679975 C36.0656022,71.2911975 35.8608022,71.2399975 35.6560021,71.1631975 C28.0784009,68.8335971 25.4416005,65.3263965 25.4416005,60.8975958 C25.4416005,55.854395 29.4864011,51.7071943 35.8352022,51.0415942 C35.7328022,49.966394 35.6560021,49.2495939 35.6560021,48.5839938 C35.6560021,47.2271935 36.3984023,46.5103934 37.3968024,46.5103934 C38.2928026,46.5103934 39.0608027,47.2015935 39.0608027,48.6351938 C39.0608027,49.2751939 38.9840027,49.966394 38.8816027,50.9903942 C44.9744037,51.3487942 48.5328043,54.4463947 48.5328043,58.5935954 C48.5328043,60.4367957 47.4576041,61.6655959 46.2032039,61.6655959 C44.6672036,61.6655959 43.5152034,60.6415957 43.5152034,59.1311955 L43.5152034,57.6463953 C43.5152034,55.2655949 41.7232031,53.3711946 38.6768026,52.9615945 C38.4464026,55.5215949 38.2160026,59.5919956 38.1904026,66.7087967 C38.3696026,66.7855968 38.5744026,66.8367968 38.7536026,66.8879968 C46.4336039,69.2687972 49.0192043,72.9807978 49.0192043,76.8463984 C49.0192043,82.1455993 45.2304037,85.8575999 38.7536026,86.3952 C38.8304027,87.1632001 38.8816027,87.7264002 38.8816027,88.2896003 Z M30.2800013,59.1823955 C30.2800013,61.972796 31.8160015,64.2767963 36.4240023,66.0943966 C36.4240023,59.3871955 36.1936022,55.4703949 36.0144022,52.9871945 C32.5328016,53.4735946 30.2800013,55.854395 30.2800013,59.1823955 Z M44.1808035,78.8687987 C44.1808035,76.1295983 42.6448033,73.8511979 38.0368025,72.0079976 C38.0880025,78.3823987 38.3440026,82.0175992 38.5488026,84.3471996 C42.0048032,83.9375996 44.1808035,81.9919992 44.1808035,78.8687987 Z" id="$" fill="#0F1215"></path>
                <path d="M13.2803611,14.2986288 C13.2803611,11.4705589 13.9828615,13.2174143 15.0481758,9.88126027 C16.1134902,6.54510628 16.4061987,6.42224099 22.3391467,4.80258737 C28.2720947,3.18293375 31.5460933,7.13675941e-16 36.8235189,0 C42.1009445,0 48.4386253,0.41196009 49.9643231,1.85887957 C51.4900209,3.30579904 54.2544899,1.61495583 56.581703,7.30687108 C58.9089162,12.9987863 68.0883988,8.05273566 65.5320781,12.9987863 C62.9757573,17.944837 54.8059382,23.0683196 53.7565241,26.7629511 C52.70711,30.4575827 62.2551885,35.2832976 62.2551885,39.5134773 C62.2551885,43.743657 65.5320781,44.271255 65.5320781,52.2285893 C65.5320781,60.1859237 69.0987852,76.0203687 69.0987852,80.9161891 C69.0987852,85.8120096 68.9896519,104.653763 66.7368806,105.853507 C64.4841094,107.05325 57.5740209,109.793869 45.476849,109.793869 C33.3796771,109.793869 15.0821445,109.940584 13.2803611,106.746087 C11.4785778,103.551589 6.17874736,109.305298 7.39222278,91.5888464 C8.60569821,73.8723943 6.07322776,76.5595305 7.39222278,64.856973 C8.71121781,53.1544154 6.78745107,48.4191138 11.8229767,40.9062422 C16.8585023,33.3933706 25.6263507,28.6660995 25.6263507,26.7629511 C25.6263507,24.8598028 13.2803611,17.1266987 13.2803611,14.2986288 Z" id="Path-3-Copy" stroke="#0F1215" stroke-width="3" stroke-linecap="round" stroke-linejoin="round" stroke-dasharray="1,4"></path>
                <path d="M25.8,25.2554209 C27.096679,25.4012723 28.7687754,24.3427507 30.8162894,22.0798562 C33.8875604,18.6855143 35.8673435,20.0053696 35.8673435,22.0798562 C35.8673435,24.1543427 41.3181902,22.3250064 42.835844,20.7689917 C44.3534978,19.2129769 46.5790305,20.626337 46.5790305,22.0798562 C46.5790305,23.5333753 47.9462376,24.453438 49.4351207,24.453438 C50.4277095,24.453438 51.9615468,24.7207656 54.0366327,25.2554209" id="Path-4-Copy" stroke="#0F1215" stroke-width="3" stroke-linecap="round" stroke-linejoin="round" stroke-dasharray="1,4"></path>
                <path d="M25.7951538,28.4 C19.6256209,34.0751493 15.0376489,42.0543123 12.0312376,52.3374889 C7.52162064,67.7622538 -0.963119404,75.2521636 0.850241924,91.0798977" id="Path-5-Copy" stroke="#0F1215" stroke-width="3" stroke-linecap="round" stroke-linejoin="round" stroke-dasharray="1,4"></path>
                <path d="M52.2,27.6 C64.1025157,49.7800955 70.0537736,62.7711877 70.0537736,66.5732766 C70.0537736,72.2764099 77.6234378,90.0028564 73.8386057,100.327543" id="Path-6-Copy" stroke="#0F1215" stroke-width="3" stroke-linecap="round" stroke-linejoin="round" stroke-dasharray="1,4"></path>
                <path d="M21,108.300645 C35.6309529,108.499331 44.7569923,107.706452 48.3781181,105.922007 C51.999244,104.137562 55.9047053,103.922218 60.094502,105.275974" id="Path-7" stroke="#0F1215" stroke-width="3" stroke-linecap="round" stroke-linejoin="round" stroke-dasharray="1,4"></path>
            </g>
            <g id="Group-8" transform="translate(0.000000, 22.000000)">
                <path d="M23.79748,0.925021326 C38.978215,1.83366222 49.5904983,2.28798266 55.6343297,2.28798266 C61.8376493,2.28798266 74.4262445,1.80936811 93.4001153,0.852138993 L93.4001153,0.852138831 C98.9159479,0.57386585 103.612999,4.81974686 103.891272,10.3355795 C103.911749,10.7414783 103.907463,11.1482479 103.878437,11.5536251 C102.843741,26.0043702 102.326392,35.5700975 102.326392,40.2508071 C102.326392,44.2692453 102.707699,50.1489727 103.470312,57.8899894 L103.470312,57.8899894 C104.011779,63.3862298 99.9951416,68.2807587 94.4989012,68.8222257 C94.042789,68.86716 93.5841273,68.8806844 93.12616,68.8627032 C77.1070783,68.2337447 65.7176724,67.9192655 58.9579423,67.9192655 C52.031539,67.9192655 40.244339,68.249444 23.5963423,68.909801 L23.5963421,68.9097961 C18.077837,69.1286923 13.4267542,64.8325104 13.207858,59.3140053 C13.2026201,59.1819547 13.2000003,59.0498131 13.2000003,58.9176587 C13.2000003,47.6501445 13.2000003,39.6909023 13.2000004,35.0399318 C13.2000004,30.3935589 13.2000004,22.3493014 13.2000004,10.9071593 L13.1999974,10.9071593 C13.1999974,5.38431015 17.6771512,0.907156296 23.2000004,0.907156283 C23.3992938,0.907156282 23.5985426,0.913113957 23.79748,0.925021326 Z" id="Rectangle-16-Copy" stroke="#0F1215" stroke-width="3" stroke-linecap="round" stroke-linejoin="round" stroke-dasharray="1,4"></path>
                <path d="M117.110754,67.1369357 C117.110754,68.9408018 114.362691,74.5980051 108.866565,84.1085454 L108.866567,84.1085469 C106.995323,87.3465619 103.473688,89.2698291 99.7380018,89.0939209 C82.3034336,88.2729517 68.9770103,87.8624672 59.758732,87.8624672 C50.3427172,87.8624672 36.59419,87.8624672 18.5131504,87.8624672 L18.5131504,87.8624691 C15.3824948,87.8624691 12.43251,86.3963323 10.5420945,83.9008697 C3.52794636,74.6417708 0.0208723366,69.0537928 0.0208724073,67.1369357 C0.0208725278,63.8724633 117.110754,63.9633926 117.110754,67.1369357 Z" id="Rectangle-16-Copy" stroke="#0F1215" stroke-width="3" stroke-linecap="round" stroke-linejoin="round" stroke-dasharray="1,4" transform="translate(58.565813, 76.913797) scale(1, -1) translate(-58.565813, -76.913797) "></path>
                <path d="M47.7898029,39.7813991 C47.8092029,40.8677993 47.3048028,41.6437994 46.1020026,41.6437994 C45.1126025,41.6437994 44.2396023,41.1587994 42.8040021,40.3051992 L33.3756006,34.7761983 C32.1146003,34.0195982 31.4550002,33.010798 31.4550002,31.7303978 C31.4550002,30.4499976 32.1146003,29.4411974 33.3756006,28.6845973 L42.8040021,23.1555964 C44.2396023,22.3019963 45.1126025,21.8169962 46.1020026,21.8169962 C47.3048028,21.8169962 47.8092029,22.5929963 47.7898029,23.6793965 C47.7898029,24.4165966 47.3048028,25.3283968 46.1214026,26.0461969 L36.6930011,31.7303978 L46.1214026,37.4145988 C47.3048028,38.1323989 47.7898029,39.044199 47.7898029,39.7813991 Z M60.1282018,33.8837982 C58.4792015,37.8995988 55.433401,45.7372001 54.0366008,49.1516007 C53.4934007,50.4902009 52.5040005,50.994601 51.2818003,50.4708009 C50.0984001,49.9664008 49.7298001,48.8412006 50.2730001,47.5026004 C51.7474004,43.8941998 55.375201,36.5415986 57.0048012,32.564598 C58.6150015,28.6845973 61.331002,21.0021961 62.7472022,17.4907955 C63.3680023,15.9581952 64.3574025,15.4149952 65.6184027,15.9775952 C66.8212029,16.5013953 67.1316029,17.6071955 66.5884028,18.9263957 C65.2110026,22.3601963 61.757802,29.9261975 60.1282018,33.8837982 Z M74.0574011,40.3051992 C72.6412008,41.1587994 71.7488007,41.6437994 70.7594005,41.6437994 C69.5760003,41.6437994 69.0522003,40.8677993 69.0716003,39.7813991 C69.0716003,39.044199 69.5566003,38.1323989 70.7400005,37.4145988 L80.1878021,31.7303978 L70.7400005,26.0461969 C69.5566003,25.3283968 69.0716003,24.4165966 69.0716003,23.6793965 C69.0522003,22.5929963 69.5760003,21.8169962 70.7594005,21.8169962 C71.7488007,21.8169962 72.6412008,22.3019963 74.0574011,23.1555964 L83.4858026,28.6845973 C84.7662028,29.4411974 85.4258029,30.4499976 85.4258029,31.7303978 C85.4258029,33.010798 84.7662028,34.0195982 83.4858026,34.7761983 L74.0574011,40.3051992 Z" id="&lt;/&gt;-copy" fill="#0F1215"></path>
                <path d="M19.7401481,7.78301542 L18.4432274,58 L95.8175956,58 L95.8175956,7.78301542 L19.7401481,7.78301542 Z" id="Path-2" stroke="#0F1215" stroke-width="3" stroke-linecap="round" stroke-linejoin="round" stroke-dasharray="1,4"></path>
            </g>
            <path d="M136.612002,70.7159993 C135.676001,70.7159993 135.100001,70.0499992 135.100001,69.2759991 L135.100001,64.2359982 L130.096001,64.2359982 C129.34,64.2359982 128.674,63.6779981 128.674,62.723998 C128.674,61.7699978 129.34,61.1759977 130.132001,61.1759977 L135.100001,61.1759977 L135.100001,56.2079969 C135.100001,55.4159968 135.676001,54.7679967 136.612002,54.7679967 C137.584002,54.7679967 138.124002,55.4339968 138.124002,56.2079969 L138.124002,61.1759977 L143.200003,61.1759977 C143.992003,61.1759977 144.622003,61.7699978 144.622003,62.723998 C144.622003,63.6959981 143.974003,64.2359982 143.200003,64.2359982 L138.124002,64.2359982 L138.124002,69.3119991 C138.124002,70.0679992 137.566002,70.7159993 136.612002,70.7159993 Z" id="+" fill="#0F1215"></path>
            <path d="M280.674,59.2499974 C280.674,58.3139973 281.358,57.7199972 282.132001,57.7199972 L295.200003,57.7199972 C295.992003,57.7199972 296.640003,58.3139973 296.640003,59.2499974 C296.640003,60.2219976 295.974003,60.7799977 295.200003,60.7799977 L282.096001,60.7799977 C281.34,60.7799977 280.674,60.2219976 280.674,59.2499974 Z M280.674,65.9999985 C280.674,65.0639984 281.358,64.4699983 282.132001,64.4699983 L295.200003,64.4699983 C295.992003,64.4699983 296.640003,65.0639984 296.640003,65.9999985 C296.640003,66.9899987 295.974003,67.5299988 295.200003,67.5299988 L282.096001,67.5299988 C281.34,67.5299988 280.674,66.9719987 280.674,65.9999985 Z" id="=" fill="#0F1215"></path>
        </g>
    </g>
</svg>