<?xml version="1.0" encoding="UTF-8"?>
<svg width="100px" height="100px" viewBox="0 0 100 100" version="1.1" xmlns="http://www.w3.org/2000/svg" xmlns:xlink="http://www.w3.org/1999/xlink">
    <!-- Generator: Sketch 49.3 (51167) - http://www.bohemiancoding.com/sketch -->
    <title>logo</title>
    <desc>Created with Sketch.</desc>
    <defs></defs>
    <g id="style-guide" stroke="none" stroke-width="1" fill="none" fill-rule="evenodd">
        <g id="style_guide" transform="translate(-76.000000, -200.000000)" fill-rule="nonzero">
            <g id="Group" transform="translate(76.000000, 150.000000)">
                <g id="logo" transform="translate(0.000000, 50.000000)">
                    <circle id="Oval-Copy" fill="#000063" cx="50" cy="50" r="50"></circle>
                    <path d="M50,3 L50,50 L97,50 C97,75.9573832 75.9573832,97 50,97 C24.0426168,97 3,75.9573832 3,50 C3,24.0426168 24.0426168,3 50,3 Z" id="Combined-Shape-Copy" fill="#FFFFFF"></path>
                    <circle id="Oval-Copy-2" fill="#000063" cx="50" cy="50" r="35"></circle>
                    <circle id="Oval-Copy-3" fill="#FFFFFF" cx="50" cy="50" r="32"></circle>
                    <path d="M35.0078125,48 L35.0078125,29.0909091 L42.4680398,29.0909091 C43.9022325,29.0909091 45.124048,29.3632785 46.1335227,29.9080256 C47.1429975,30.4527726 47.9139415,31.2067897 48.4463778,32.1700994 C48.9788142,33.1334092 49.2450284,34.2428914 49.2450284,35.4985795 C49.2450284,36.7542676 48.9741978,37.8606723 48.4325284,38.8178267 C47.890859,39.7749811 47.1076046,40.522843 46.0827415,41.0614347 C45.0578784,41.6000264 43.8191361,41.8693182 42.3664773,41.8693182 L39.0056818,41.8693182 L39.0056818,48 L35.0078125,48 Z M39.0056818,38.665483 L41.7201705,38.665483 C42.8650625,38.665483 43.7191023,38.3715702 44.2823153,37.7837358 C44.8455284,37.1959014 45.1271307,36.4341903 45.1271307,35.4985795 C45.1271307,34.5568135 44.8455284,33.79818 44.2823153,33.2226562 C43.7191023,32.6471325 42.8589073,32.359375 41.7017045,32.359375 L39.0056818,32.359375 L39.0056818,38.665483 Z M51.8487216,48 L51.8487216,29.0909091 L55.8465909,29.0909091 L55.8465909,37.428267 L56.0958807,37.428267 L62.9005682,29.0909091 L67.6924716,29.0909091 L60.6754261,37.5575284 L67.7755682,48 L62.9928977,48 L57.8132102,40.2258523 L55.8465909,42.6264205 L55.8465909,48 L51.8487216,48 Z M39.578125,71.2769886 C38.2670389,71.2769886 37.1390909,71.0430895 36.1942472,70.5752841 C35.2494034,70.1074787 34.5230849,69.47195 34.0152699,68.668679 C33.5074548,67.8654079 33.2535511,66.9682815 33.2535511,65.9772727 C33.2535511,64.8816233 33.5705461,63.9614147 34.2045455,63.2166193 C34.8385448,62.4718239 35.6695024,61.7455054 36.6974432,61.037642 C36.2050165,60.409798 35.7818436,59.7388767 35.4279119,59.024858 C35.0739802,58.3108392 34.897017,57.5352788 34.897017,56.6981534 C34.897017,55.7810087 35.1124505,54.9562063 35.5433239,54.2237216 C35.9741972,53.4912369 36.5758721,52.9111054 37.3483665,52.4833097 C38.1208609,52.055514 39.0241426,51.8416193 40.0582386,51.8416193 C41.0738687,51.8416193 41.947913,52.0447423 42.6803977,52.4509943 C43.4128825,52.8572463 43.9776259,53.3989076 44.3746449,54.0759943 C44.7716639,54.753081 44.9701705,55.4947876 44.9701705,56.3011364 C44.9701705,57.1936598 44.7501206,58.0015352 44.3100142,58.7247869 C43.8699078,59.4480387 43.2528449,60.0958778 42.4588068,60.6683239 L41.3508523,61.462358 L44.4715909,65.0447443 C44.7178043,64.5769389 44.9132332,64.0691315 45.0578835,63.5213068 C45.2025339,62.9734821 45.274858,62.3918118 45.274858,61.7762784 L48.5340909,61.7762784 C48.5340909,63.0565878 48.3786711,64.1953075 48.0678267,65.1924716 C47.7569823,66.1896357 47.3399647,67.039059 46.8167614,67.740767 L49.6605114,71 L45.5610795,71 L44.4161932,69.7258523 C43.7206405,70.2675216 42.9466188,70.6614571 42.0941051,70.9076705 C41.2415914,71.1538838 40.4029397,71.2769886 39.578125,71.2769886 Z M42.2926136,67.3622159 L38.7102273,63.3735795 L38.5994318,63.4474432 C38.0762284,63.8229185 37.689987,64.2106988 37.440696,64.6107955 C37.191405,65.0108922 37.0667614,65.3925171 37.0667614,65.7556818 C37.0667614,66.4266132 37.312971,66.988279 37.8053977,67.440696 C38.2978244,67.8931131 38.9533576,68.1193182 39.772017,68.1193182 C40.6337638,68.1193182 41.4739542,67.8669533 42.2926136,67.3622159 Z M39.4580966,59.21875 L40.4460227,58.5724432 C41.3631675,57.9876865 41.821733,57.3044547 41.821733,56.5227273 C41.821733,56.1472519 41.6709295,55.7994808 41.3693182,55.4794034 C41.0677068,55.1593261 40.6399175,55.0023674 40.0859375,55.0085227 C39.5381128,55.0146781 39.098013,55.1901024 38.765625,55.5348011 C38.433237,55.8794998 38.2670455,56.2888234 38.2670455,56.7627841 C38.2670455,57.1567255 38.3778398,57.5537385 38.5994318,57.9538352 C38.8210238,58.3539319 39.1072426,58.775566 39.4580966,59.21875 Z M68.0617898,58.7109375 L64.0177557,58.7109375 C63.8638723,57.6706861 63.420695,56.8535778 62.6882102,56.2595881 C61.9557255,55.6655984 61.0416721,55.368608 59.9460227,55.368608 C58.4810533,55.368608 57.306941,55.9056528 56.4236506,56.9797585 C55.5403602,58.0538643 55.0987216,59.5757477 55.0987216,61.5454545 C55.0987216,63.564404 55.5434378,65.098598 56.4328835,66.1480824 C57.3223293,67.1975668 58.4841311,67.7223011 59.9183239,67.7223011 C60.9831966,67.7223011 61.8849395,67.4437765 62.6235795,66.8867188 C63.3622196,66.329661 63.8269403,65.5464066 64.0177557,64.5369318 L68.0617898,64.5553977 C67.9202171,65.7126005 67.5078159,66.8020782 66.8245739,67.8238636 C66.1413318,68.845649 65.2134292,69.673529 64.0408381,70.3075284 C62.868247,70.9415278 61.472546,71.2585227 59.8536932,71.2585227 C58.1671317,71.2585227 56.6606364,70.8768978 55.3341619,70.1136364 C54.0076875,69.350375 52.9612964,68.2455091 52.1949574,66.7990057 C51.4286183,65.3525022 51.0454545,63.601336 51.0454545,61.5454545 C51.0454545,59.4834177 51.4332348,57.7291739 52.2088068,56.2826705 C52.9843789,54.836167 54.0369252,53.73284 55.3664773,52.9726562 C56.6960294,52.2124725 58.1917531,51.8323864 59.8536932,51.8323864 C61.3125073,51.8323864 62.6281902,52.1016782 63.8007812,52.6402699 C64.9733723,53.1788616 65.93359,53.9605773 66.6814631,54.9854403 C67.4293361,56.0103034 67.8894404,57.2521234 68.0617898,58.7109375 Z" id="PK-&amp;C-Copy" fill="#630000"></path>
                </g>
            </g>
        </g>
    </g>
</svg>