<svg width="404" height="122" viewBox="0 0 404 122" fill="none" xmlns="http://www.w3.org/2000/svg">
<path d="M193.611 26.6572C193.051 26.6572 192.711 25.6772 192.111 25.6772C191.791 25.6772 191.591 25.8772 191.491 26.2372L190.091 32.2172C189.991 32.6772 190.131 32.9172 190.411 32.9572C190.691 33.0172 190.951 32.8172 191.111 32.3572C192.551 28.1972 193.211 27.6972 195.151 27.6972H200.011V51.9972C200.011 52.8772 199.551 53.3972 198.691 53.4772L196.611 53.6772C196.171 53.7172 195.891 53.8972 195.891 54.1972C195.891 54.4972 196.111 54.6572 196.511 54.6572H204.971C205.391 54.6572 205.611 54.4972 205.611 54.1972C205.611 53.8972 205.331 53.7172 204.871 53.6772L202.791 53.4772C201.931 53.3972 201.411 52.8772 201.411 51.9972V27.6972H206.151C208.111 27.6972 208.891 28.2172 210.331 32.3572C210.491 32.8172 210.751 33.0172 211.031 32.9572C211.331 32.9172 211.471 32.6772 211.351 32.2172L209.931 26.2572C209.851 25.8772 209.651 25.6972 209.331 25.6972C208.771 25.6972 208.411 26.6572 207.951 26.6572H193.611Z" fill="white"/>
<path fill-rule="evenodd" clip-rule="evenodd" d="M178.553 18.2131V111.209C178.553 113.614 180.59 115.563 183.102 115.563H249.155C258.063 115.563 265.284 108.651 265.284 100.124V13.8584H183.102C180.59 13.8584 178.553 15.8081 178.553 18.2131Z" stroke="white" stroke-width="3" stroke-linecap="round" stroke-linejoin="round" stroke-dasharray="1 4"/>
<path fill-rule="evenodd" clip-rule="evenodd" d="M187.646 11.7114L170.776 103.294C170.339 105.663 171.992 107.921 174.466 108.339L239.515 119.319C248.288 120.799 256.653 115.192 258.2 106.795L273.849 21.8396L192.916 8.17904C190.441 7.76141 188.082 9.34291 187.646 11.7114Z" stroke="white" stroke-width="3" stroke-linecap="round" stroke-linejoin="round" stroke-dasharray="1 4"/>
<path d="M222.272 48.7847H241.435" stroke="white" stroke-width="3" stroke-linecap="round" stroke-linejoin="round" stroke-dasharray="1 4"/>
<path d="M193.489 68.897H253.016" stroke="white" stroke-width="3" stroke-linecap="round" stroke-linejoin="round" stroke-dasharray="1 4"/>
<path d="M192.558 88.2349H232.343" stroke="white" stroke-width="3" stroke-linecap="round" stroke-linejoin="round" stroke-dasharray="1 4"/>
<path d="M362.725 88.4185C362.725 88.0345 362.699 87.5737 362.648 86.8313C368.152 86.4729 371.557 82.9145 371.557 78.1273C371.557 74.4409 368.792 70.6265 362.162 68.8089C362.187 60.0025 362.367 55.3433 362.52 52.7065C366.488 52.9625 368.869 55.1385 368.869 58.0057V59.1833C368.869 59.9513 369.304 60.4633 370.047 60.4633C370.687 60.4633 371.301 59.8233 371.301 58.5177C371.301 54.7289 367.896 51.7337 362.597 51.4777C362.674 50.3513 362.725 49.7625 362.725 49.3273C362.725 48.3545 362.264 47.8937 361.675 47.8937C361.061 47.8937 360.498 48.3545 360.498 49.3017C360.498 49.7625 360.549 50.3513 360.6 51.5033C355.045 52.0153 351.333 55.9577 351.333 60.6681C351.333 64.5337 353.688 68.1433 360.933 70.1657C360.907 78.7417 360.754 83.0937 360.626 85.5001C356.12 85.1929 353.458 82.9145 353.458 79.9961V78.5369C353.458 77.5641 353.099 77.0265 352.357 77.0265C351.64 77.0265 351.051 77.9225 351.051 79.2025C351.051 83.0681 355.224 86.3705 360.549 86.8057C360.523 87.5481 360.472 88.0089 360.472 88.3673C360.472 89.5961 360.907 90.1593 361.573 90.1593C362.29 90.1593 362.725 89.6217 362.725 88.4185ZM353.048 60.2585C353.048 56.1625 356.043 53.0905 360.677 52.7065C360.779 55.3177 360.933 59.9257 360.907 68.4505C354.943 66.5817 353.048 63.6889 353.048 60.2585ZM369.791 78.7161C369.791 82.7865 366.923 85.2441 362.546 85.5257C362.392 83.1449 362.213 78.8697 362.187 70.5241C367.947 72.3417 369.791 75.2089 369.791 78.7161Z" fill="white"/>
<path fill-rule="evenodd" clip-rule="evenodd" d="M338.292 16.1515C338.292 13.3526 339.018 15.0815 340.12 11.7796C341.221 8.47778 341.524 8.35618 347.658 6.75318C353.792 5.15019 357.177 2 362.633 2C368.09 2 374.643 2.40772 376.22 3.83976C377.797 5.27179 380.656 3.59834 383.062 9.23171C385.468 14.8651 394.959 9.9699 392.316 14.8651C389.673 19.7602 381.226 24.831 380.141 28.4876C379.056 32.1443 388.928 36.9203 388.928 41.107C388.928 45.2937 392.316 45.8158 392.316 53.6913C392.316 61.5668 396.004 77.2384 396.004 82.0838C396.004 86.9293 395.891 105.577 393.561 106.765C391.232 107.952 384.088 110.664 371.58 110.664C359.073 110.664 340.155 110.81 338.292 107.648C336.429 104.486 330.949 110.181 332.204 92.6467C333.459 75.1125 330.84 77.772 332.204 66.1898C333.568 54.6076 331.579 49.921 336.785 42.4855C341.991 35.0499 351.056 30.3712 351.056 28.4876C351.056 26.6041 338.292 18.9505 338.292 16.1515Z" stroke="white" stroke-width="3" stroke-linecap="round" stroke-linejoin="round" stroke-dasharray="1 4"/>
<path d="M351.237 26.9953C352.577 27.1397 354.306 26.092 356.423 23.8524C359.599 20.493 361.646 21.7993 361.646 23.8524C361.646 25.9056 367.281 24.095 368.851 22.555C370.42 21.015 372.721 22.4138 372.721 23.8524C372.721 25.291 374.134 26.2016 375.674 26.2016C376.7 26.2016 378.286 26.4661 380.431 26.9953" stroke="white" stroke-width="3" stroke-linecap="round" stroke-linejoin="round" stroke-dasharray="1 4"/>
<path d="M351.231 30.1079C344.853 35.7247 340.109 43.6218 337.001 53.7992C332.338 69.0653 323.566 76.4781 325.44 92.143" stroke="white" stroke-width="3" stroke-linecap="round" stroke-linejoin="round" stroke-dasharray="1 4"/>
<path d="M378.532 29.3164C390.838 51.2683 396.991 64.1258 396.991 67.8888C396.991 73.5332 404.818 91.0773 400.904 101.296" stroke="white" stroke-width="3" stroke-linecap="round" stroke-linejoin="round" stroke-dasharray="1 4"/>
<path d="M346.273 109.187C361.4 109.383 370.836 108.599 374.58 106.833C378.324 105.066 382.362 104.853 386.694 106.193" stroke="white" stroke-width="3" stroke-linecap="round" stroke-linejoin="round" stroke-dasharray="1 4"/>
<path fill-rule="evenodd" clip-rule="evenodd" d="M26.5829 24.6889C42.2786 25.5882 53.2508 26.0379 59.4997 26.0379C65.9134 26.0379 78.929 25.5642 98.5465 24.6168V24.6168C104.249 24.3414 109.106 28.5436 109.393 34.0027C109.415 34.4044 109.41 34.807 109.38 35.2082C108.31 49.5103 107.776 58.9776 107.776 63.6102C107.776 67.5873 108.17 73.4065 108.958 81.0679C109.518 86.5076 105.365 91.3518 99.6825 91.8877C99.211 91.9322 98.7367 91.9456 98.2632 91.9278C81.7008 91.3053 69.925 90.994 62.936 90.994C55.7747 90.994 43.5877 91.3208 26.375 91.9744V91.9744C20.6693 92.191 15.8604 87.939 15.6341 82.4773C15.6287 82.3466 15.626 82.2158 15.626 82.085C15.626 70.9334 15.626 63.056 15.626 58.4529C15.626 53.8543 15.626 45.8928 15.626 34.5684H15.626C15.626 29.1024 20.255 24.6713 25.9652 24.6713C26.1712 24.6713 26.3772 24.6772 26.5829 24.6889Z" stroke="white" stroke-width="3" stroke-linecap="round" stroke-linejoin="round" stroke-dasharray="1 4"/>
<path fill-rule="evenodd" clip-rule="evenodd" d="M123.062 109.572C123.062 107.787 120.22 102.188 114.538 92.7753H114.538C112.603 89.5706 108.962 87.6672 105.1 87.8413C87.0736 88.6538 73.2951 89.06 63.7642 89.06C54.0288 89.06 39.8139 89.06 21.1195 89.06V89.06C17.8827 89.06 14.8326 90.5111 12.8781 92.9809C5.62603 102.145 2 107.675 2 109.572C2 112.803 123.062 112.713 123.062 109.572Z" stroke="white" stroke-width="3" stroke-linecap="round" stroke-linejoin="round" stroke-dasharray="1 4"/>
<path d="M49.2145 62.4389C49.2145 62.1867 48.9817 61.8763 48.5549 61.6241L36.0225 54.6401L48.5549 47.6561C48.9817 47.4039 49.2145 47.0935 49.2145 46.8413C49.2145 46.5697 49.0787 46.3757 48.7683 46.3757C48.4967 46.3757 48.2251 46.5309 47.8565 46.7249L35.6345 53.4179C35.0137 53.7477 34.7033 54.1357 34.7033 54.6401C34.7033 55.1251 34.9943 55.5131 35.6345 55.8623L47.8565 62.5553C48.2251 62.7493 48.4967 62.9045 48.7683 62.9045C49.0787 62.9045 49.2145 62.7105 49.2145 62.4389ZM59.8924 56.2309C61.3474 52.3509 64.8006 43.4463 66.2362 39.6633C66.4302 39.2171 66.2944 38.7903 65.9258 38.6351C65.5184 38.4605 65.1886 38.6739 64.9752 39.1783C63.3068 43.6403 60.2028 52.1957 58.8448 55.7653C57.4674 59.3931 54.15 67.8515 52.4234 72.2941C52.2682 72.7791 52.3846 73.2059 52.7338 73.3417C53.1994 73.5357 53.5098 73.3417 53.7232 72.8179C55.1588 69.0349 58.418 60.1303 59.8924 56.2309ZM70.8152 62.5553L83.0566 55.8623C83.6774 55.5325 83.9684 55.1445 83.9684 54.6401C83.9684 54.1551 83.6774 53.7671 83.0566 53.4179L70.8152 46.7249C70.4466 46.5309 70.175 46.3757 69.9228 46.3757C69.593 46.3757 69.4572 46.5697 69.4572 46.8413C69.4572 47.0935 69.7094 47.4039 70.1362 47.6561L82.6492 54.6401L70.1362 61.6241C69.7094 61.8763 69.4572 62.1867 69.4572 62.4389C69.4572 62.7105 69.593 62.9045 69.9228 62.9045C70.175 62.9045 70.4466 62.7493 70.8152 62.5553Z" fill="white"/>
<path fill-rule="evenodd" clip-rule="evenodd" d="M22.3883 31.4761L21.0474 81.1765H101.046V31.4761H22.3883Z" stroke="white" stroke-width="3" stroke-linecap="round" stroke-linejoin="round" stroke-dasharray="1 4"/>
<path d="M142.898 71.3146C143.852 71.3146 144.41 70.6666 144.41 69.9106V64.8346H149.486C150.26 64.8346 150.908 64.2946 150.908 63.3226C150.908 62.3686 150.278 61.7746 149.486 61.7746H144.41V56.8066C144.41 56.0326 143.87 55.3666 142.898 55.3666C141.962 55.3666 141.386 56.0146 141.386 56.8066V61.7746H136.418C135.626 61.7746 134.96 62.3686 134.96 63.3226C134.96 64.2766 135.626 64.8346 136.382 64.8346H141.386V69.8746C141.386 70.6486 141.962 71.3146 142.898 71.3146Z" fill="white"/>
<path d="M292.116 59.8486C292.116 60.8206 292.782 61.3786 293.538 61.3786H306.642C307.416 61.3786 308.082 60.8206 308.082 59.8486C308.082 58.9126 307.434 58.3186 306.642 58.3186H293.574C292.8 58.3186 292.116 58.9126 292.116 59.8486ZM292.116 66.5986C292.116 67.5706 292.782 68.1286 293.538 68.1286H306.642C307.416 68.1286 308.082 67.5886 308.082 66.5986C308.082 65.6626 307.434 65.0686 306.642 65.0686H293.574C292.8 65.0686 292.116 65.6626 292.116 66.5986Z" fill="white"/>
</svg>
