<?xml version="1.0" encoding="UTF-8"?>
<svg width="146px" height="117px" viewBox="0 0 146 117" version="1.1" xmlns="http://www.w3.org/2000/svg" xmlns:xlink="http://www.w3.org/1999/xlink">
    <!-- Generator: Sketch 49.3 (51167) - http://www.bohemiancoding.com/sketch -->
    <title>Group 11</title>
    <desc>Created with Sketch.</desc>
    <defs></defs>
    <g id="wptw" stroke="none" stroke-width="1" fill="none" fill-rule="evenodd">
        <g id="Group-11" transform="translate(1.000000, 1.000000)">
            <g id="Group-2-Copy" stroke="#0F1215" stroke-dasharray="1,4" stroke-linecap="round" stroke-linejoin="round" stroke-width="3">
                <g id="Group-4">
                    <path d="M8.7811785,11.3823873 L8.7811785,105.344522 C8.7811785,107.774574 10.7511256,109.744522 13.1811785,109.744522 L77.0670654,109.744522 C85.6827075,109.744522 92.6670654,102.760164 92.6670654,94.1445216 L92.6670654,6.98238733 L13.1811785,6.98238733 C10.7511256,6.98238733 8.7811785,8.95233443 8.7811785,11.3823873 Z" id="Path-8"></path>
                    <path d="M8.7811785,11.3823873 L8.7811785,105.344522 C8.7811785,107.774574 10.7511256,109.744522 13.1811785,109.744522 L77.0670654,109.744522 C85.6827075,109.744522 92.6670654,102.760164 92.6670654,94.1445216 L92.6670654,6.98238733 L13.1811785,6.98238733 C10.7511256,6.98238733 8.7811785,8.95233443 8.7811785,11.3823873 Z" id="Path-8" transform="translate(50.724122, 58.363454) rotate(10.000000) translate(-50.724122, -58.363454) "></path>
                </g>
            </g>
            <path d="M41.6000021,61.4599963 C41.250002,59.744996 41.9150021,58.3449958 43.5600024,57.3999956 L45.9400028,56.1049954 C50.5600035,53.514995 52.4500038,49.9799944 52.4500038,44.9399936 C52.4500038,39.6199927 49.6500034,36.8199923 45.9400028,36.8199923 C41.8100021,36.8199923 39.8500018,38.9899926 39.8500018,42.2449932 L39.8500018,44.2399935 C39.8500018,47.284994 38.3100015,48.9999943 35.6500011,48.9999943 C33.2700007,49.0349943 31.6950004,47.319994 31.6950004,44.5549935 C31.6950004,38.5699926 37.8550015,33.3549917 46.3600028,33.3549917 C55.3200043,33.3549917 60.6400052,37.7299924 60.6400052,45.4999937 C60.6400052,52.0099948 57.3850047,56.4899955 50.1400035,58.9749959 L48.4950032,59.639996 C47.480003,59.9549961 47.130003,60.6899962 46.9200029,61.7749964 L46.4650029,67.5149973 C45.9400028,69.0199975 45.3450027,69.5799976 44.1550025,69.5799976 C43.0000023,69.5799976 42.3000022,68.9149975 42.0200021,67.6199973 L41.6000021,61.4599963 Z M43.9800025,84.5950001 C41.285002,84.5950001 39.1500017,82.3549997 39.1500017,79.6949993 C39.1500017,76.9299988 41.285002,74.7949985 43.9800025,74.7949985 C46.7100029,74.7949985 48.8100032,76.9299988 48.8100032,79.6949993 C48.8100032,82.3549997 46.7100029,84.5950001 43.9800025,84.5950001 Z" id="?" fill="#0F1215"></path>
            <g id="Group-10" transform="translate(74.712813, 3.712813)" stroke="#0F1215" stroke-dasharray="1,4" stroke-linecap="round" stroke-linejoin="round" stroke-width="3">
                <path d="M32,64 C49.673112,64 64,49.673112 64,32 C64,14.326888 49.673112,0 32,0 C14.326888,0 0,14.326888 0,32 C0,49.673112 14.326888,64 32,64 Z" id="Oval-2"></path>
                <path d="M55.9019238,52.6147367 L55.9019238,52.6147367 C58.1110628,52.6147367 59.9019238,54.4055977 59.9019238,56.6147367 L59.9019238,92.6147367 C59.9019238,94.8238757 58.1110628,96.6147367 55.9019238,96.6147367 L55.9019238,96.6147367 C53.6927848,96.6147367 51.9019238,94.8238757 51.9019238,92.6147367 L51.9019238,56.6147367 C51.9019238,54.4055977 53.6927848,52.6147367 55.9019238,52.6147367 Z" id="Rectangle-19" transform="translate(55.901924, 74.614737) rotate(-30.000000) translate(-55.901924, -74.614737) "></path>
                <path d="M32,59 C46.9116882,59 59,46.9116882 59,32 C59,17.0883118 46.9116882,5 32,5 C17.0883118,5 5,17.0883118 5,32 C5,46.9116882 17.0883118,59 32,59 Z" id="Oval-2"></path>
            </g>
        </g>
    </g>
</svg>